<?xml version="1.0" standalone="no"?>
<!DOCTYPE svg PUBLIC "-//W3C//DTD SVG 20010904//EN"
 "http://www.w3.org/TR/2001/REC-SVG-20010904/DTD/svg10.dtd">
<svg version="1.0" xmlns="http://www.w3.org/2000/svg"
 width="234.000000pt" height="234.000000pt" viewBox="0 0 234.000000 234.000000"
 preserveAspectRatio="xMidYMid meet">

<g transform="translate(0.000000,234.000000) scale(0.100000,-0.100000)"
fill="#000000" stroke="none">
<path d="M1622 1624 c-68 -68 -144 -169 -177 -234 -28 -56 -115 -295 -115
-317 0 -30 141 -158 210 -190 70 -33 186 -63 244 -63 33 0 36 3 36 28 0 44 27
123 58 173 25 39 37 48 78 58 61 15 90 34 108 69 32 63 30 68 -26 110 -34 27
-63 60 -83 99 -33 60 -79 100 -127 110 -16 3 -28 6 -28 7 0 0 7 33 15 71 19
92 19 135 0 135 -13 0 -59 -52 -107 -120 -17 -25 -17 -24 -16 43 0 37 -2 70
-5 73 -3 4 -33 -20 -65 -52z"/>
<path d="M607 1526 c-67 -28 -135 -72 -151 -99 -6 -10 -28 -29 -49 -44 -31
-21 -54 -27 -132 -34 -103 -9 -140 -23 -179 -69 -49 -59 -34 -108 75 -244 97
-120 114 -127 329 -137 307 -14 314 -22 405 -431 24 -112 55 -234 67 -273 l23
-70 55 -8 c152 -23 401 16 555 87 151 70 306 192 404 320 39 50 131 203 131
217 0 3 -75 9 -167 13 -212 9 -296 21 -392 54 -190 68 -302 193 -400 447 -66
172 -105 213 -246 261 -117 40 -248 44 -328 10z m226 -299 c48 -82 181 -187
236 -187 63 0 69 103 17 280 l-8 25 16 -22 c43 -58 74 -216 56 -282 -19 -70
-71 -77 -162 -19 -113 71 -200 203 -197 301 l1 42 8 -48 c5 -26 20 -67 33 -90z"/>
</g>
</svg>
